<mxfile host="app.diagrams.net" modified="2021-11-26T06:39:42.165Z" agent="5.0 (Macintosh; Intel Mac OS X 10_13_6) AppleWebKit/537.36 (KHTML, like Gecko) Chrome/95.0.4638.69 Safari/537.36" etag="BW9ZhdkvOvE1R_mkV_60" version="14.7.5" type="github">
  <diagram id="-3H7_eP4d08RKbeTJsaN" name="第 1 页">
    <mxGraphModel dx="1381" dy="771" grid="1" gridSize="10" guides="1" tooltips="1" connect="1" arrows="1" fold="1" page="1" pageScale="1" pageWidth="827" pageHeight="1169" math="0" shadow="0">
      <root>
        <mxCell id="0" />
        <mxCell id="1" parent="0" />
        <mxCell id="e-USwHF_RCZm08cQn0hD-1" value="&lt;font style=&quot;font-size: 24px&quot;&gt;本地dev&lt;/font&gt;" style="rounded=1;whiteSpace=wrap;html=1;" vertex="1" parent="1">
          <mxGeometry x="270" y="1040" width="260" height="82" as="geometry" />
        </mxCell>
        <mxCell id="e-USwHF_RCZm08cQn0hD-2" value="&lt;font style=&quot;font-size: 24px&quot;&gt;远程master&lt;/font&gt;" style="ellipse;whiteSpace=wrap;html=1;" vertex="1" parent="1">
          <mxGeometry x="20" y="720" width="270" height="100" as="geometry" />
        </mxCell>
        <mxCell id="e-USwHF_RCZm08cQn0hD-3" value="&lt;font style=&quot;font-size: 24px&quot;&gt;远程dev&lt;br&gt;&lt;/font&gt;" style="ellipse;whiteSpace=wrap;html=1;" vertex="1" parent="1">
          <mxGeometry x="490" y="720" width="270" height="100" as="geometry" />
        </mxCell>
        <mxCell id="e-USwHF_RCZm08cQn0hD-4" value="" style="shape=flexArrow;endArrow=classic;html=1;exitX=0.815;exitY=-0.012;exitDx=0;exitDy=0;exitPerimeter=0;entryX=0.452;entryY=1;entryDx=0;entryDy=0;entryPerimeter=0;" edge="1" parent="1" source="e-USwHF_RCZm08cQn0hD-1" target="e-USwHF_RCZm08cQn0hD-3">
          <mxGeometry width="50" height="50" relative="1" as="geometry">
            <mxPoint x="480" y="1020" as="sourcePoint" />
            <mxPoint x="530" y="970" as="targetPoint" />
          </mxGeometry>
        </mxCell>
        <mxCell id="e-USwHF_RCZm08cQn0hD-6" value="" style="shape=flexArrow;endArrow=classic;html=1;entryX=1;entryY=0.5;entryDx=0;entryDy=0;exitX=0;exitY=0.5;exitDx=0;exitDy=0;" edge="1" parent="1" source="e-USwHF_RCZm08cQn0hD-3" target="e-USwHF_RCZm08cQn0hD-2">
          <mxGeometry width="50" height="50" relative="1" as="geometry">
            <mxPoint x="360" y="810" as="sourcePoint" />
            <mxPoint x="410" y="760" as="targetPoint" />
          </mxGeometry>
        </mxCell>
        <mxCell id="e-USwHF_RCZm08cQn0hD-9" value="" style="shape=flexArrow;endArrow=classic;html=1;exitX=0.344;exitY=0.97;exitDx=0;exitDy=0;exitPerimeter=0;" edge="1" parent="1" source="e-USwHF_RCZm08cQn0hD-2">
          <mxGeometry width="50" height="50" relative="1" as="geometry">
            <mxPoint x="170" y="970" as="sourcePoint" />
            <mxPoint x="315" y="1037" as="targetPoint" />
          </mxGeometry>
        </mxCell>
        <mxCell id="e-USwHF_RCZm08cQn0hD-10" value="&lt;font style=&quot;font-size: 18px&quot;&gt;git merge dev&lt;/font&gt;" style="text;html=1;strokeColor=none;fillColor=none;align=center;verticalAlign=middle;whiteSpace=wrap;rounded=0;" vertex="1" parent="1">
          <mxGeometry x="310" y="740" width="120" height="20" as="geometry" />
        </mxCell>
        <mxCell id="e-USwHF_RCZm08cQn0hD-11" value="&lt;font style=&quot;font-size: 18px&quot;&gt;&lt;b&gt;git pull origin master&lt;/b&gt;&lt;/font&gt;" style="text;html=1;strokeColor=none;fillColor=none;align=center;verticalAlign=middle;whiteSpace=wrap;rounded=0;rotation=48;" vertex="1" parent="1">
          <mxGeometry x="150" y="920" width="190" height="20" as="geometry" />
        </mxCell>
        <mxCell id="e-USwHF_RCZm08cQn0hD-12" value="&lt;font style=&quot;font-size: 18px&quot;&gt;&lt;b&gt;git push origin dev&lt;/b&gt;&lt;/font&gt;" style="text;html=1;strokeColor=none;fillColor=none;align=center;verticalAlign=middle;whiteSpace=wrap;rounded=0;rotation=-60;" vertex="1" parent="1">
          <mxGeometry x="440" y="920" width="170" height="20" as="geometry" />
        </mxCell>
      </root>
    </mxGraphModel>
  </diagram>
</mxfile>
